<?xml version="1.0" encoding="UTF-8"?>
<!DOCTYPE svg PUBLIC "-//W3C//DTD SVG 1.1//EN" "http://www.w3.org/Graphics/SVG/1.1/DTD/svg11.dtd">
<svg width="160mm" height="90mm" viewBox="0 0 16000 9000" version="1.1" xmlns="http://www.w3.org/2000/svg" xmlns:xlink="http://www.w3.org/1999/xlink" stroke-width="28.222" stroke-linejoin="round" xml:space="preserve">
 <path fill="rgb(255,255,255)" stroke="none" d="M 7999,9004 L 0,9004 0,0 15997,0 15997,9004 7999,9004 Z"/>
 <path fill="none" stroke="rgb(179,179,179)" stroke-linejoin="round" d="M 7723,7196 L 2692,7196 2692,2338 12753,2338 12753,7196 7723,7196 Z"/>
 <path fill="none" stroke="rgb(179,179,179)" stroke-linejoin="round" d="M 12753,7195 L 2692,7195"/>
 <path fill="none" stroke="rgb(179,179,179)" stroke-linejoin="round" d="M 12753,6587 L 2692,6587"/>
 <path fill="none" stroke="rgb(179,179,179)" stroke-linejoin="round" d="M 12753,5980 L 2692,5980"/>
 <path fill="none" stroke="rgb(179,179,179)" stroke-linejoin="round" d="M 12753,5372 L 2692,5372"/>
 <path fill="none" stroke="rgb(179,179,179)" stroke-linejoin="round" d="M 12753,4765 L 2692,4765"/>
 <path fill="none" stroke="rgb(179,179,179)" stroke-linejoin="round" d="M 12753,4159 L 2692,4159"/>
 <path fill="none" stroke="rgb(179,179,179)" stroke-linejoin="round" d="M 12753,3551 L 2692,3551"/>
 <path fill="none" stroke="rgb(179,179,179)" stroke-linejoin="round" d="M 12753,2944 L 2692,2944"/>
 <path fill="none" stroke="rgb(179,179,179)" stroke-linejoin="round" d="M 12753,2337 L 2692,2337"/>
 <path fill="none" stroke="rgb(179,179,179)" stroke-linejoin="round" d="M 2692,7345 L 2692,7195"/>
 <path fill="none" stroke="rgb(179,179,179)" stroke-linejoin="round" d="M 2692,7345 L 2692,7195"/>
 <path fill="none" stroke="rgb(179,179,179)" stroke-linejoin="round" d="M 4129,7345 L 4129,7195"/>
 <path fill="none" stroke="rgb(179,179,179)" stroke-linejoin="round" d="M 4129,7345 L 4129,7195"/>
 <path fill="none" stroke="rgb(179,179,179)" stroke-linejoin="round" d="M 5566,7345 L 5566,7195"/>
 <path fill="none" stroke="rgb(179,179,179)" stroke-linejoin="round" d="M 5566,7345 L 5566,7195"/>
 <path fill="none" stroke="rgb(179,179,179)" stroke-linejoin="round" d="M 7004,7345 L 7004,7195"/>
 <path fill="none" stroke="rgb(179,179,179)" stroke-linejoin="round" d="M 7004,7345 L 7004,7195"/>
 <path fill="none" stroke="rgb(179,179,179)" stroke-linejoin="round" d="M 8440,7345 L 8440,7195"/>
 <path fill="none" stroke="rgb(179,179,179)" stroke-linejoin="round" d="M 8440,7345 L 8440,7195"/>
 <path fill="none" stroke="rgb(179,179,179)" stroke-linejoin="round" d="M 9878,7345 L 9878,7195"/>
 <path fill="none" stroke="rgb(179,179,179)" stroke-linejoin="round" d="M 9878,7345 L 9878,7195"/>
 <path fill="none" stroke="rgb(179,179,179)" stroke-linejoin="round" d="M 11315,7345 L 11315,7195"/>
 <path fill="none" stroke="rgb(179,179,179)" stroke-linejoin="round" d="M 11315,7345 L 11315,7195"/>
 <path fill="none" stroke="rgb(179,179,179)" stroke-linejoin="round" d="M 12753,7345 L 12753,7195"/>
 <path fill="none" stroke="rgb(179,179,179)" stroke-linejoin="round" d="M 12753,7345 L 12753,7195"/>
 <path fill="none" stroke="rgb(179,179,179)" stroke-linejoin="round" d="M 2692,7195 L 12753,7195"/>
 <path fill="none" stroke="rgb(179,179,179)" stroke-linejoin="round" d="M 2542,7195 L 2692,7195"/>
 <path fill="none" stroke="rgb(179,179,179)" stroke-linejoin="round" d="M 2542,7195 L 2692,7195"/>
 <path fill="none" stroke="rgb(179,179,179)" stroke-linejoin="round" d="M 2542,6587 L 2692,6587"/>
 <path fill="none" stroke="rgb(179,179,179)" stroke-linejoin="round" d="M 2542,6587 L 2692,6587"/>
 <path fill="none" stroke="rgb(179,179,179)" stroke-linejoin="round" d="M 2542,5980 L 2692,5980"/>
 <path fill="none" stroke="rgb(179,179,179)" stroke-linejoin="round" d="M 2542,5980 L 2692,5980"/>
 <path fill="none" stroke="rgb(179,179,179)" stroke-linejoin="round" d="M 2542,5372 L 2692,5372"/>
 <path fill="none" stroke="rgb(179,179,179)" stroke-linejoin="round" d="M 2542,5372 L 2692,5372"/>
 <path fill="none" stroke="rgb(179,179,179)" stroke-linejoin="round" d="M 2542,4765 L 2692,4765"/>
 <path fill="none" stroke="rgb(179,179,179)" stroke-linejoin="round" d="M 2542,4765 L 2692,4765"/>
 <path fill="none" stroke="rgb(179,179,179)" stroke-linejoin="round" d="M 2542,4159 L 2692,4159"/>
 <path fill="none" stroke="rgb(179,179,179)" stroke-linejoin="round" d="M 2542,4159 L 2692,4159"/>
 <path fill="none" stroke="rgb(179,179,179)" stroke-linejoin="round" d="M 2542,3551 L 2692,3551"/>
 <path fill="none" stroke="rgb(179,179,179)" stroke-linejoin="round" d="M 2542,3551 L 2692,3551"/>
 <path fill="none" stroke="rgb(179,179,179)" stroke-linejoin="round" d="M 2542,2944 L 2692,2944"/>
 <path fill="none" stroke="rgb(179,179,179)" stroke-linejoin="round" d="M 2542,2944 L 2692,2944"/>
 <path fill="none" stroke="rgb(179,179,179)" stroke-linejoin="round" d="M 2542,2337 L 2692,2337"/>
 <path fill="none" stroke="rgb(179,179,179)" stroke-linejoin="round" d="M 2542,2337 L 2692,2337"/>
 <path fill="none" stroke="rgb(179,179,179)" stroke-linejoin="round" d="M 2692,7195 L 2692,2337"/>
 <path fill="rgb(0,69,134)" stroke="none" d="M 11495,7195 L 11854,7195 11854,6618 11495,6618 11495,7195 Z"/>
 <path fill="rgb(0,69,134)" stroke="none" d="M 10057,7195 L 10417,7195 10417,6709 10057,6709 10057,7195 Z"/>
 <path fill="rgb(0,69,134)" stroke="none" d="M 8620,7195 L 8979,7195 8979,6710 8620,6710 8620,7195 Z"/>
 <path fill="rgb(0,69,134)" stroke="none" d="M 7183,7195 L 7543,7195 7543,6587 7183,6587 7183,7195 Z"/>
 <path fill="rgb(0,69,134)" stroke="none" d="M 5746,7195 L 6105,7195 6105,6588 5746,6588 5746,7195 Z"/>
 <path fill="rgb(0,69,134)" stroke="none" d="M 4309,7195 L 4668,7195 4668,6709 4309,6709 4309,7195 Z"/>
 <path fill="rgb(0,69,134)" stroke="none" d="M 2871,7195 L 3231,7195 3231,6979 2871,6979 2871,7195 Z"/>
 <path fill="rgb(255,66,14)" stroke="none" d="M 11854,7195 L 12213,7195 12213,6083 11854,6083 11854,7195 Z"/>
 <path fill="rgb(255,66,14)" stroke="none" d="M 10417,7195 L 10776,7195 10776,5533 10417,5533 10417,7195 Z"/>
 <path fill="rgb(255,66,14)" stroke="none" d="M 8979,7195 L 9339,7195 9339,6528 8979,6528 8979,7195 Z"/>
 <path fill="rgb(255,66,14)" stroke="none" d="M 7543,7195 L 7902,7195 7902,6600 7543,6600 7543,7195 Z"/>
 <path fill="rgb(255,66,14)" stroke="none" d="M 6105,7195 L 6465,7195 6465,6586 6105,6586 6105,7195 Z"/>
 <path fill="rgb(255,66,14)" stroke="none" d="M 4668,7195 L 5027,7195 5027,6694 4668,6694 4668,7195 Z"/>
 <path fill="rgb(255,66,14)" stroke="none" d="M 3231,7195 L 3590,7195 3590,7002 3231,7002 3231,7195 Z"/>
 <path fill="rgb(255,211,32)" stroke="none" d="M 12213,7195 L 12573,7195 12573,2867 12213,2867 12213,7195 Z"/>
 <path fill="rgb(255,211,32)" stroke="none" d="M 10776,7195 L 11135,7195 11135,3509 10776,3509 10776,7195 Z"/>
 <path fill="rgb(255,211,32)" stroke="none" d="M 9339,7195 L 9698,7195 9698,4868 9339,4868 9339,7195 Z"/>
 <path fill="rgb(255,211,32)" stroke="none" d="M 7902,7195 L 8261,7195 8261,5518 7902,5518 7902,7195 Z"/>
 <path fill="rgb(255,211,32)" stroke="none" d="M 6465,7195 L 6824,7195 6824,6125 6465,6125 6465,7195 Z"/>
 <path fill="rgb(255,211,32)" stroke="none" d="M 5027,7195 L 5387,7195 5387,6673 5027,6673 5027,7195 Z"/>
 <path fill="rgb(255,211,32)" stroke="none" d="M 3590,7195 L 3949,7195 3949,6921 3590,6921 3590,7195 Z"/>
 <text class="SVGTextShape"><tspan class="TextParagraph" font-family="Liberation Sans, sans-serif" font-size="353px" font-weight="400"><tspan class="TextPosition" x="3317" y="7763"><tspan fill="rgb(0,0,0)" stroke="none">1</tspan></tspan></tspan></text>
 <text class="SVGTextShape"><tspan class="TextParagraph" font-family="Liberation Sans, sans-serif" font-size="353px" font-weight="400"><tspan class="TextPosition" x="4755" y="7763"><tspan fill="rgb(0,0,0)" stroke="none">2</tspan></tspan></tspan></text>
 <text class="SVGTextShape"><tspan class="TextParagraph" font-family="Liberation Sans, sans-serif" font-size="353px" font-weight="400"><tspan class="TextPosition" x="6192" y="7763"><tspan fill="rgb(0,0,0)" stroke="none">5</tspan></tspan></tspan></text>
 <text class="SVGTextShape"><tspan class="TextParagraph" font-family="Liberation Sans, sans-serif" font-size="353px" font-weight="400"><tspan class="TextPosition" x="7538" y="7763"><tspan fill="rgb(0,0,0)" stroke="none">10</tspan></tspan></tspan></text>
 <text class="SVGTextShape"><tspan class="TextParagraph" font-family="Liberation Sans, sans-serif" font-size="353px" font-weight="400"><tspan class="TextPosition" x="8975" y="7763"><tspan fill="rgb(0,0,0)" stroke="none">20</tspan></tspan></tspan></text>
 <text class="SVGTextShape"><tspan class="TextParagraph" font-family="Liberation Sans, sans-serif" font-size="353px" font-weight="400"><tspan class="TextPosition" x="10412" y="7763"><tspan fill="rgb(0,0,0)" stroke="none">30</tspan></tspan></tspan></text>
 <text class="SVGTextShape"><tspan class="TextParagraph" font-family="Liberation Sans, sans-serif" font-size="353px" font-weight="400"><tspan class="TextPosition" x="11850" y="7763"><tspan fill="rgb(0,0,0)" stroke="none">40</tspan></tspan></tspan></text>
 <text class="SVGTextShape"><tspan class="TextParagraph" font-family="Liberation Sans, sans-serif" font-size="353px" font-weight="400"><tspan class="TextPosition" x="2257" y="7316"><tspan fill="rgb(0,0,0)" stroke="none">0</tspan></tspan></tspan></text>
 <text class="SVGTextShape"><tspan class="TextParagraph" font-family="Liberation Sans, sans-serif" font-size="353px" font-weight="400"><tspan class="TextPosition" x="1331" y="6708"><tspan fill="rgb(0,0,0)" stroke="none">100000</tspan></tspan></tspan></text>
 <text class="SVGTextShape"><tspan class="TextParagraph" font-family="Liberation Sans, sans-serif" font-size="353px" font-weight="400"><tspan class="TextPosition" x="1331" y="6101"><tspan fill="rgb(0,0,0)" stroke="none">200000</tspan></tspan></tspan></text>
 <text class="SVGTextShape"><tspan class="TextParagraph" font-family="Liberation Sans, sans-serif" font-size="353px" font-weight="400"><tspan class="TextPosition" x="1331" y="5493"><tspan fill="rgb(0,0,0)" stroke="none">300000</tspan></tspan></tspan></text>
 <text class="SVGTextShape"><tspan class="TextParagraph" font-family="Liberation Sans, sans-serif" font-size="353px" font-weight="400"><tspan class="TextPosition" x="1331" y="4886"><tspan fill="rgb(0,0,0)" stroke="none">400000</tspan></tspan></tspan></text>
 <text class="SVGTextShape"><tspan class="TextParagraph" font-family="Liberation Sans, sans-serif" font-size="353px" font-weight="400"><tspan class="TextPosition" x="1331" y="4279"><tspan fill="rgb(0,0,0)" stroke="none">500000</tspan></tspan></tspan></text>
 <text class="SVGTextShape"><tspan class="TextParagraph" font-family="Liberation Sans, sans-serif" font-size="353px" font-weight="400"><tspan class="TextPosition" x="1331" y="3671"><tspan fill="rgb(0,0,0)" stroke="none">600000</tspan></tspan></tspan></text>
 <text class="SVGTextShape"><tspan class="TextParagraph" font-family="Liberation Sans, sans-serif" font-size="353px" font-weight="400"><tspan class="TextPosition" x="1331" y="3064"><tspan fill="rgb(0,0,0)" stroke="none">700000</tspan></tspan></tspan></text>
 <text class="SVGTextShape"><tspan class="TextParagraph" font-family="Liberation Sans, sans-serif" font-size="353px" font-weight="400"><tspan class="TextPosition" x="1331" y="2457"><tspan fill="rgb(0,0,0)" stroke="none">800000</tspan></tspan></tspan></text>
 <text class="SVGTextShape"><tspan class="TextParagraph" font-family="Liberation Sans, sans-serif" font-size="459px" font-weight="400"><tspan class="TextPosition" x="5009" y="851"><tspan fill="rgb(0,0,0)" stroke="none">Redis v/s KeyDB v/s Skytable</tspan></tspan></tspan></text>
 <text class="SVGTextShape"><tspan class="TextParagraph" font-family="Liberation Sans, sans-serif" font-size="388px" font-weight="400"><tspan class="TextPosition" x="6464" y="1761"><tspan fill="rgb(0,0,0)" stroke="none">GET benchmarks</tspan></tspan></tspan></text>
 <path fill="rgb(0,69,134)" stroke="none" d="M 13294,4109 L 13188,4109 13188,3898 13399,3898 13399,4109 13294,4109 Z"/>
 <path fill="rgb(255,66,14)" stroke="none" d="M 13294,4606 L 13188,4606 13188,4396 13399,4396 13399,4606 13294,4606 Z"/>
 <path fill="rgb(255,211,32)" stroke="none" d="M 13294,5104 L 13188,5104 13188,4893 13399,4893 13399,5104 13294,5104 Z"/>
 <text class="SVGTextShape"><tspan class="TextParagraph" font-family="Liberation Sans, sans-serif" font-size="353px" font-weight="400"><tspan class="TextPosition" x="13499" y="4123"><tspan fill="rgb(0,0,0)" stroke="none">Redis/GET</tspan></tspan></tspan></text>
 <text class="SVGTextShape"><tspan class="TextParagraph" font-family="Liberation Sans, sans-serif" font-size="353px" font-weight="400"><tspan class="TextPosition" x="13499" y="4620"><tspan fill="rgb(0,0,0)" stroke="none">KeyDB/GET</tspan></tspan></tspan></text>
 <text class="SVGTextShape"><tspan class="TextParagraph" font-family="Liberation Sans, sans-serif" font-size="353px" font-weight="400"><tspan class="TextPosition" x="13499" y="5118"><tspan fill="rgb(0,0,0)" stroke="none">Skytable/GET</tspan></tspan></tspan></text>
 <text class="SVGTextShape"><tspan class="TextParagraph" font-family="Liberation Sans, sans-serif" font-size="318px" font-weight="400"><tspan class="TextPosition" x="6129" y="8410"><tspan fill="rgb(0,0,0)" stroke="none">Connections</tspan></tspan></tspan></text>
 <text class="SVGTextShape" transform="rotate(-90 837 6075)"><tspan class="TextParagraph" font-family="Liberation Sans, sans-serif" font-size="318px" font-weight="400"><tspan class="TextPosition" x="837" y="6075"><tspan fill="rgb(0,0,0)" stroke="none">Operations/sec</tspan></tspan></tspan></text>
</svg>